<svg xmlns="http://www.w3.org/2000/svg" viewBox="0 0 100 100"><title>()xx</title><path d="M58.1347,26.6876c1.6153,12.34-1.9054,26.3634-11.853,34.5911-3.2552,2.6924-16.6487,12.63-20.3589,7.05C22.8621,63.7257,27.8066,57.7824,31.528,55.7c4.3589-2.4389,9.7258-3.3159,14.6672-3.3147,13.5433.0035,24.23,10.22,29.3216,22.0653.76,1.7686,3.3454.2422,2.59-1.5142C73.2665,61.676,63.4334,51.6658,50.8988,49.73c-8.2867-1.28-19.77.3407-25.5442,7.0428-3.68,4.2711-5.1471,14.66,2.2653,15.8815,6.9075,1.1384,15.1661-4.7528,20.21-8.7921,10.84-8.6813,15.0511-23.8353,13.305-37.1742-.247-1.8872-3.25-1.9117-3,0Z"/></svg>