<svg xmlns="http://www.w3.org/2000/svg" viewBox="0 0 100 100"><title>(xx)</title><path d="M56.7412,53.3208c7.7027-10.7594,1.18-29.0043-13.3921-28.5466-15.6117.49-22.039,19.5791-17.5424,32.2682C30.2339,69.5361,44.7683,76.615,57.56,75.2655c12.2594-1.2933,21.7754-14.0894,16.68-26.2944-5.3151-12.7324-24.8438-9.8-34.9243-5.8533-1.7777.696-1.004,3.5981.7976,2.8928,7.8334-3.0667,19.0143-5.2316,26.7745-.8841,10.124,5.6717,5.2621,21.7791-3.9071,25.7257-9.1818,3.9521-21.6016.4143-28.7428-6.15-8.8-8.09-9.6055-23.9981-.6971-32.3433,13.5065-12.6525,30.5594,5.55,20.61,19.4482-1.1257,1.5724,1.4751,3.072,2.59,1.5141Z"/></svg>